<svg width="15" height="14" viewBox="0 0 15 14" fill="none" xmlns="http://www.w3.org/2000/svg">
<path d="M13.9495 2.12286C14.069 2.00991 14.1642 1.87478 14.2298 1.72536C14.2954 1.57593 14.33 1.41521 14.3315 1.25255C14.333 1.0899 14.3015 0.928577 14.2387 0.778C14.1759 0.627424 14.0832 0.490608 13.9658 0.375536C13.8485 0.260463 13.709 0.169439 13.5554 0.107774C13.4018 0.0461091 13.2372 0.0150386 13.0713 0.0163748C12.9053 0.017711 12.7413 0.0514274 12.5887 0.115557C12.4362 0.179687 12.2982 0.272945 12.1828 0.38989L7.17285 5.29806L2.16451 0.38989C2.05008 0.269535 1.91208 0.173002 1.75874 0.106048C1.60541 0.0390947 1.43989 0.00309272 1.27205 0.000190642C1.10421 -0.00271144 0.937498 0.0275459 0.781851 0.0891569C0.626204 0.150768 0.484815 0.242471 0.366117 0.358795C0.247419 0.475119 0.153845 0.61368 0.0909764 0.766214C0.028108 0.918748 -0.00276677 1.08213 0.000194533 1.24661C0.00315584 1.41109 0.0398925 1.5733 0.108212 1.72357C0.176532 1.87383 0.275036 2.00908 0.397847 2.12122L5.40285 7.03102L0.394514 11.9392C0.173714 12.1714 0.0535085 12.4786 0.0592222 12.7959C0.0649359 13.1133 0.196123 13.4161 0.425145 13.6405C0.654166 13.8649 0.963141 13.9935 1.28698 13.9991C1.61081 14.0047 1.92422 13.8869 2.16118 13.6705L7.17285 8.76236L12.1812 13.6722C12.4181 13.8885 12.7316 14.0063 13.0554 14.0007C13.3792 13.9951 13.6882 13.8666 13.9172 13.6421C14.1462 13.4177 14.2774 13.1149 14.2831 12.7975C14.2889 12.4802 14.1686 12.173 13.9478 11.9408L8.94285 7.03102L13.9495 2.12286Z" fill="white"/>
</svg>
