<svg width="100" height="71" viewBox="0 0 100 71" fill="none" xmlns="http://www.w3.org/2000/svg">
<path d="M22.5 70.1149C10.0781 70.1149 0 60.0203 0 47.578C0 37.7494 6.28125 29.3919 15.0312 26.3088C15.0156 25.8862 15 25.4636 15 25.041C15 11.2059 26.1875 0 40 0C49.2656 0 57.3438 5.03951 61.6719 12.5518C64.1347 10.8965 67.0341 10.0139 70 10.0164C78.2812 10.0164 85 16.7462 85 25.041C85 26.9504 84.6406 28.7659 84 30.4562C93.125 32.303 100 40.3943 100 50.0821C100 61.1471 91.0469 70.1149 80 70.1149H22.5ZM34.8438 36.153C33.375 37.6242 33.375 40.0031 34.8438 41.4586C36.3125 42.9141 38.6875 42.9298 40.1406 41.4586L46.2344 35.3548V56.3424C46.2344 58.4239 47.9062 60.0985 49.9844 60.0985C52.0625 60.0985 53.7344 58.4239 53.7344 56.3424V35.3548L59.8281 41.4586C61.2969 42.9298 63.6719 42.9298 65.125 41.4586C66.5781 39.9874 66.5938 37.6085 65.125 36.153L52.625 23.6325C51.1562 22.1613 48.7812 22.1613 47.3281 23.6325L34.8281 36.153H34.8438Z" fill="white"/>
</svg>
